<?xml version="1.0" encoding="UTF-8"?>
<svg id="Layer_1" data-name="Layer 1" xmlns="http://www.w3.org/2000/svg" version="1.1" viewBox="0 0 64 64">
  <defs>
    <style>
      .cls-1 {
        fill: #00677e;
        stroke-width: 0px;
      }
    </style>
  </defs>
  <path class="cls-1" d="M49.9,54.1c-8,2.4-15.5,1.3-19.6.2-.1,1.7-.3,2.4-.6,2.6-.3.4-2.9,1.8-4.4-.3-.6-1-.9-2.8-1.1-4.5-9.2-4.2-13.5-10.3-13.6-10.6-.2-.2-2.3-2.4-.2-5.1,2-2.4,8.4-4.9,14.2-5.8.2-4.9.8-8.8,1.5-10.5.8-2,1.9-.2,2.8,1.1.8,1,1.2,5.4,1.3,8.8,3.8-.2,6.1,0,10.3.9,5.5.9,9.2,3.8,8.9,7-.3,3.1-3.1,4.5-4.3,4.5s-2.9-.7-2.9-.7c-1.3-.6-.1-1.1,1.3-1.8,1.6-.8,1.3-1.6,1.3-1.6-.6-1.8-7.8-3-14.9-3,0,3.9.2,10.5.3,14.3,5,.9,8.7.7,8.7.7,0,0,18.2-.5,18.7-12.1.6-11.6-18.2-22.8-32-26.3-13.8-3.6-21.6-1.1-22.3-.7-.7.4,0,.5,0,.5,0,0,.7.1,2.1.6s.3,1.1.3,1.1c-2.4.8-5,.3-5.5-.7-.5-1.1.3-2,1.3-3.4.9-1.5,2-1.4,2-1.4,17.1-6,37.9,4.7,37.9,4.7,19.5,9.8,22.8,21.4,22.5,25.9-.3,4.4-2,11.9-14.1,15.6M12.4,38.1c-1.9.9-.6,2.3-.6,2.3,3.6,3.9,8.1,6.3,12.4,7.9.5-6.7.4-9.2.4-12.5-6.6.4-10.4,1.5-12.2,2.3"/>
</svg>